# xmcd
#
# Track frame offsets: 
#        150
#        19396
#        35953
#        53029
#        67514
#        82420
#        96477
#        114159
#        131320
#        145198
#        158009
#        172907
#        188304
#
# Disc length: 2791 seconds
#
# Revision: 0
# Processed by: cddbd v1.5.1PL2 Copyright (c) Steve Scherf et al.
# Submitted via: ExactAudioCopy v0.95b3
#
DISCID=a30ae50d
DTITLE=Robyn Luckwick - For So Long
DYEAR=2005
DGENRE=Country
TTITLE0=What Do I Know
TTITLE1=El Dorado
TTITLE2=Virginia
TTITLE3=Stranger
TTITLE4=Morning Comes
TTITLE5=For So Long
TTITLE6=I Am
TTITLE7=Departing Louisiana
TTITLE8=For Thomas
TTITLE9=Harper's Ferry Blues
TTITLE10=Far From Enough
TTITLE11=Saturday Night
TTITLE12=Live My Life
EXTD=
EXTT0=
EXTT1=
EXTT2=
EXTT3=
EXTT4=
EXTT5=
EXTT6=
EXTT7=
EXTT8=
EXTT9=
EXTT10=
EXTT11=
EXTT12=
PLAYORDER=
